<?xml version="1.0"?><svg width="640" height="400" xmlns="http://www.w3.org/2000/svg">
 <g>
  <title>Layer 1</title>
  <path id="path3" fill="#000" d="m236.751373,63.198891c-6.714996,-19.696491 -31.983994,-11.6021 -47,-14.2631c-12.423996,-2.201691 -23.602997,-11.375801 -36,-14.581791c-23.43399,-6.060499 -57.223289,5.418301 -70.452194,25.844891c-13.478096,20.811607 -14.843498,50.507011 -9.311699,74.000008c2.034203,8.639008 6.755203,16.354996 8.865799,25c3.901901,15.981995 5.472,36.559006 4.624199,53c-0.786499,15.251007 -19.279495,39.658997 -10.242294,53.999008c5.303696,8.415985 16.902893,12.753998 25.516197,16.781006c23.362,10.923981 48.410057,14.545044 73.833061,14.535065c9.455002,-0.003998 27.250931,-3.015076 34.849945,-9.309082c3.964996,-3.28299 3.031998,-10.416992 3.602997,-15.005981c1.511002,-12.143005 1.580002,-27.24202 7.804001,-38.000015c15.50499,-26.800995 35.128983,-51.283997 52.370987,-77c7.839996,-11.692993 18.696014,-25.011002 22.007019,-39c3.446991,-14.569 2.10199,-37.564201 -8.847015,-48.6605c-12.872986,-13.0462 -33.154419,-12.564388 -49.297409,-7.782089m-59.323593,-11.557419c-19.492996,6.063309 -32.967987,35.753601 -33,55.000008c-0.232285,6.18071 -2.401993,17.470001 4,21c-2.797989,-22.140999 1.582001,-55.263512 22.171005,-68.854198c14.186996,-9.3652 46.429001,-10.91441 58.438995,2.958401c7.452011,8.608498 7.508011,22.158203 6.206009,32.895798c-2.125,17.512001 -16.956009,29.023003 -23.81601,44c12.513,-3.522003 26.872009,-31.409996 27.529007,-44c0.660995,-12.656502 -5.363007,-25.808701 10.470993,-30.072495c31.660004,-8.525703 42.863251,20.54657 41.632233,45.638268c-1.364166,9.32341 -6.57724,23.325233 -11.686218,31.434227c-11.444,18.162003 -22.682007,37.871002 -36.897003,54c-4.534012,5.145004 -18.036011,27.507004 -26.430008,17.386002c-2.871994,-3.462997 0.852005,-8.317993 2.690002,-11.386002c6.341995,-10.582001 13.546005,-20.242004 19.690994,-31c-12.285995,6.042999 -15.005997,26.283005 -28,33.990997c-6.807999,4.03801 -20.337997,-1.951996 -21.681992,-10.005997c-1.374008,-8.233994 3.677994,-19.123001 7.681992,-25.985001c-8.97699,6.626999 -6.709,19.236008 -14.389999,25.257004c-4.024994,3.154999 -11.365463,0.794586 -15.716461,-0.288406c-4.678009,-1.16301 -11.901535,-1.6996 -15.290527,-5.481598c-2.518005,-2.811005 -1.597,-8.018997 -1.603012,-11.487c-0.013,-7.792999 -1.013992,-15.492996 -3,-23c0,0 2.242004,25.247009 -2.857986,31.682007c-4.833008,6.097992 -24.598648,4.194199 -26.114006,-2.701004l-2.028,-22.981003c-2.631004,7.218994 -0.346001,14.994003 -2.970001,21.981003c-1.583,4.216995 -10.602997,10.134995 -13.426598,3.856003c-2.552002,-5.675003 -1.114304,-15.589996 -1.707603,-21.837006c-0.827797,-8.716003 -3.6894,-18.472 -5.895798,-27c0,0 2.846901,26.453995 2.996101,39c0.064896,5.456009 -1.575645,17.631393 -5.327888,12.009247c-4.157005,-10.794998 -2.859711,-17.267731 -5.566315,-28.353729c-2.0308,-8.317993 -6.500298,-18.398514 -8.623497,-26.655518c-5.566002,-21.645996 -3.329201,-47.3759 7.859596,-67c14.412804,-25.278908 53.263008,-35.240408 78.661995,-23.254608c5.282013,2.492599 12.692001,4.203899 16,9.254601m-62.999992,40.000008l0.778709,1.327759c1.181,-14.837105 10.622284,-34.577766 26.221283,-38.327766c-15.385986,-6.395901 -32.120995,24.621613 -26.999992,37.000008m145.999992,-11c3.312012,8.074799 6.548492,15.496712 4.860504,24.492722c-0.636322,7.171997 -5.2565,15.430283 -6.860504,22.507278c10.492737,-8.725655 15.428345,-38.026772 2,-47m-51,198.000015c-37.375992,-19.666016 -91.369995,-30.014008 -132.999992,-19c0.712997,-15.60202 10.674301,-29.368011 11.906601,-45.000015c0.417198,-5.291992 -1.343941,-15.041 2.687561,-19.298004c6.178497,-6.523987 21.259834,-4.794998 29.405838,-4.697998c26.831001,0.319 56.364006,5.324005 79.999992,18.572006c6.013,3.371002 15.539001,6.432999 19.381012,12.466995c3.419998,5.371002 -3.281998,11.917007 -5.022003,16.957001c-4.007996,11.609009 -5.350998,27.705002 -5.359009,40.000015m-8.634613,1.233826c4.843903,3.068481 7.896072,5.540741 3.675888,8.097351c-24.692291,11.713074 -53.907272,5.814819 -79.041267,-3.151184c-6.473999,-2.309998 -25.122299,-6.950012 -24.453697,-16.136993c0.705696,-9.696014 16.771996,-8.149475 22.912994,-8.149475c26.730408,1.106476 52.526321,6.129944 76.906082,19.340302z"/>
 </g>
</svg>